D:\softs\github_david\PredSimResults\Falisse_et_al_2022\Falisse_et_al_2022_v1_GRF.mot
version=1
nRows=15
nColumns=19
inDegrees=yes
endheader
                time	   ground_force_r_vx	   ground_force_r_vy	   ground_force_r_vz	   ground_force_r_px	   ground_force_r_py	   ground_force_r_pz	   ground_torque_r_x	   ground_torque_r_y	   ground_torque_r_z	   ground_force_l_vx	   ground_force_l_vy	   ground_force_l_vz	   ground_force_l_px	   ground_force_l_py	   ground_force_l_pz	   ground_torque_l_x	   ground_torque_l_y	   ground_torque_l_z	
          1.65399614	         77.85822189	        441.88770449	         -7.83583018	          0.42266239	          0.00000000	          0.05924627	        -26.18019696	         11.05695931	        186.76931304	        -73.44259195	         72.55400772	        -21.65197976	          0.93204083	          0.00000000	         -0.04494740	          3.26111375	         23.48158309	         67.62329760	
          1.66502278	         71.64000803	        383.52223824	         -4.42346269	          0.43010175	          0.00000000	          0.06134624	        -23.52764729	          9.02265330	        164.95358660	        -33.54165726	        213.11624851	        -17.90336259	          0.93672595	          0.00000000	         -0.04365462	          9.30350841	         18.23491513	        199.63151953	
          1.67604942	         63.87707054	        331.84177552	         -1.89168972	          0.43638009	          0.00000000	          0.06334609	        -21.02087791	          7.02428197	        144.80914262	        -39.04303749	        379.78809101	          4.04239581	          0.93791462	          0.00000000	         -0.04293581	         16.30650817	         -2.11107351	        356.20880236	
          1.68707606	         57.36386642	        293.23608369	          3.49216860	          0.43784603	          0.00000000	          0.06279446	        -18.41360248	          3.95306262	        128.39225451	        -60.55972993	        516.80849539	         11.87140811	          0.93896741	          0.00000000	         -0.04281907	         22.12926150	         -8.48525877	        485.26633213	
          1.69810270	         52.59709541	        248.23746200	          9.62628055	          0.43915504	          0.00000000	          0.06128241	        -15.21259085	          0.55021846	        109.01473241	        -72.52894987	        599.85460973	         12.93722221	          0.94101494	          0.00000000	         -0.04322552	         25.92902763	         -8.71916303	        564.47214700	
          1.70912934	         45.49145036	        197.13061949	         14.21291537	          0.44091689	          0.00000000	          0.05910185	        -11.65078378	         -2.42122356	         86.91821966	        -87.84976044	        666.68623529	         14.18010830	          0.94613497	          0.00000000	         -0.04493896	         29.96018729	         -8.39538393	        630.77516427	
          1.72015598	         34.33291653	        143.14100223	         17.84054725	          0.44314857	          0.00000000	          0.05605958	         -8.02442409	         -5.24082663	         63.43273018	        -95.19054936	        710.83273454	         16.36150669	          0.95196755	          0.00000000	         -0.04687874	         33.32294645	         -9.48434379	        676.68969680	
          1.73118263	         17.25366260	         89.33094965	         17.29171295	          0.44590954	          0.00000000	          0.05117678	         -4.57167004	         -6.45923490	         39.83352273	        -94.43760816	        721.50523990	         16.78448667	          0.95706436	          0.00000000	         -0.04807338	         34.68519555	         -9.53856028	        690.52695418	
          1.74220927	         -2.91058448	         34.46161597	          9.41609291	          0.45074895	          0.00000000	          0.03630895	         -1.25126503	         -4.26902178	         15.53353711	        -89.12731957	        720.86881444	         16.46072122	          0.96194797	          0.00000000	         -0.04862052	         35.04901614	         -9.12304690	        693.43829053	
          1.75323591	         -0.70887033	          0.76386356	          0.16073843	          0.00000000	          0.00000000	          0.00000000	         -0.01133302	         -0.08418087	          0.35003558	        -84.65541661	        723.23815547	         16.56359137	          0.96821808	          0.00000000	         -0.04814456	         34.81998186	         -8.89590569	        700.25225473	
          1.76426255	          0.00023744	         -0.00019986	         -0.00001058	          0.00000000	          0.00000000	          0.00000000	          0.00000288	          0.00000838	         -0.00009374	        -77.69234132	        714.83974906	         16.48307175	          0.97488634	          0.00000000	         -0.04708375	         33.65733701	         -8.57078460	        696.88750392	
          1.77528919	          0.00001729	         -0.00001235	         -0.00000024	          0.00000000	          0.00000000	          0.00000000	          0.00000018	          0.00000036	         -0.00000600	        -68.97346525	        690.76183784	         15.40301989	          0.98087805	          0.00000000	         -0.04626833	         31.96039625	         -7.46635529	        677.55312264	
          1.78631583	          0.00006252	         -0.00003922	          0.00000032	          0.00000000	          0.00000000	          0.00000000	          0.00000057	          0.00000075	         -0.00001989	        -60.06614331	        662.74161754	         14.94035396	          0.98630197	          0.00000000	         -0.04569415	         30.28341356	         -7.03397568	        653.66336601	
          1.79734247	          0.00073099	         -0.00041284	          0.00001270	          0.00000000	          0.00000000	          0.00000000	          0.00000660	          0.00000492	         -0.00021984	        -51.56190685	        635.43187881	         15.03652647	          0.99145979	          0.00000000	         -0.04525501	         28.75647511	         -7.21325153	        630.00515471	
          1.80836911	         -0.00456884	          0.00236454	         -0.00012681	          0.00000000	          0.00000000	          0.00000000	         -0.00005026	         -0.00002594	          0.00132430	        -43.97900887	        611.50998637	         15.60162206	          0.99663443	          0.00000000	         -0.04487854	         27.44367685	         -7.92326583	        609.45190510	
